<svg id="visual" viewBox="0 0 900 600" width="900" height="600" xmlns="http://www.w3.org/2000/svg" xmlns:xlink="http://www.w3.org/1999/xlink" version="1.1"><g transform="translate(436.5193307407973 295.17673691749116)"><path d="M73.8 -113.3C88.1 -76 86.9 -45.6 115.3 -2.8C143.7 39.9 201.8 95 202.9 139.9C204.1 184.9 148.4 219.8 100.6 207C52.9 194.2 13.1 133.7 -13.2 97.6C-39.4 61.4 -52.2 49.4 -84 30.8C-115.9 12.2 -166.7 -13.1 -174.8 -41.8C-182.8 -70.5 -148 -102.7 -111.7 -136.1C-75.4 -169.5 -37.7 -204.3 -4 -199.6C29.8 -194.8 59.6 -150.7 73.8 -113.3" fill="#B4975A"></path></g></svg>