<svg id="visual" viewBox="0 0 900 600" width="900" height="600" xmlns="http://www.w3.org/2000/svg" xmlns:xlink="http://www.w3.org/1999/xlink" version="1.1"><g transform="translate(473.6603875029075 260.5091962240917)"><path d="M113.4 -121.3C139.3 -113.3 147.4 -70.4 151.1 -29.6C154.8 11.2 154.1 49.9 133.4 68.8C112.7 87.8 72.1 87.1 29.4 119.4C-13.2 151.6 -57.9 216.8 -80.5 212.3C-103 207.9 -103.5 134 -125.9 80C-148.4 26.1 -192.9 -7.9 -199.3 -46.2C-205.8 -84.6 -174.2 -127.3 -134.7 -132.9C-95.1 -138.4 -47.6 -106.7 -1.9 -104.4C43.7 -102.1 87.4 -129.2 113.4 -121.3" fill="#B4975A"></path></g></svg>